<svg xmlns="http://www.w3.org/2000/svg"><symbol viewBox="0 0 16 14" id="src-1"><path d="M8,10c-0.266,0-0.5-0.094-1-0.336L0,6v7c0,0.55,0.45,1,1,1h14c0.55,0,1-0.45,1-1V6L9,9.664C8.5,9.906,8.266,10,8,10z M15,2  H1C0.45,2,0,2.45,0,3v0.758l8,4.205l8-4.205V3C16,2.45,15.55,2,15,2z"/></symbol><symbol viewBox="0 0 1664 1664" id="src-2"><path d="M1408 1193q0-11-2-16-3-8-38.5-29.5t-88.5-49.5l-53-29q-5-3-19-13t-25-15-21-5q-18 0-47 32.5t-57 65.5-44 33q-7 0-16.5-3.5t-15.5-6.5-17-9.5-14-8.5q-99-55-170.5-126.5t-126.5-170.5q-2-3-8.5-14t-9.5-17-6.5-15.5-3.5-16.5q0-13 20.5-33.5t45-38.5 45-39.5 20.5-36.5q0-10-5-21t-15-25-13-19q-3-6-15-28.5t-25-45.5-26.5-47.5-25-40.5-16.5-18-16-2q-48 0-101 22-46 21-80 94.5t-34 130.5q0 16 2.5 34t5 30.5 9 33 10 29.5 12.5 33 11 30q60 164 216.5 320.5t320.5 216.5q6 2 30 11t33 12.5 29.5 10 33 9 30.5 5 34 2.5q57 0 130.5-34t94.5-80q22-53 22-101zm256-777v960q0 119-84.5 203.5t-203.5 84.5h-960q-119 0-203.5-84.5t-84.5-203.5v-960q0-119 84.5-203.5t203.5-84.5h960q119 0 203.5 84.5t84.5 203.5z"/></symbol><symbol viewBox="0 0 30.001719 30.001717" id="src-3"><title/><g id="Location"><path d="M26.49,30H5.5A3.35,3.35,0,0,1,3,29a3.35,3.35,0,0,1-1-2.48V5.5A3.35,3.35,0,0,1,3,3,3.35,3.35,0,0,1,5.5,2h21A3.35,3.35,0,0,1,29,3,3.35,3.35,0,0,1,30,5.5v21A3.52,3.52,0,0,1,26.49,30ZM16,21.47a.46.46,0,0,0,.38-.23h.06q.12-.3,4.26-6.44a5.19,5.19,0,0,0,.67-2.63,5.19,5.19,0,0,0-1.57-3.82A5.12,5.12,0,0,0,16,6.76a5.18,5.18,0,0,0-3.83,1.58,5.17,5.17,0,0,0-1.59,3.82A5.11,5.11,0,0,0,11.41,15c.55.85,1.13,1.69,1.72,2.54l2.43,3.67A.51.51,0,0,0,16,21.47Zm0,3.83a5.25,5.25,0,0,0,1.64-.22c.46-.15.69-.32.69-.52s-.23-.39-.69-.54A5.25,5.25,0,0,0,16,23.8a5.29,5.29,0,0,0-1.64.22q-.69.23-.69.54c0,.2.23.37.69.52A5.29,5.29,0,0,0,16,25.3Zm.1-10.4a2.24,2.24,0,0,1-1.53-.56,2.15,2.15,0,0,1-.18-3,2,2,0,0,1,1.55-.76,2.16,2.16,0,0,1,1.5.56,2,2,0,0,1,.72,1.56,2.19,2.19,0,0,1-.55,1.5A2.11,2.11,0,0,1,16.07,14.9Z"/></g></symbol><symbol viewBox="0 0 496 496" id="src-4"><g id="_x37_1-github"><path d="M376,16H136C69.726,16,16,69.726,16,136v240c0,66.274,53.726,120,120,120h240c66.274,0,120-53.726,120-120V136   C496,69.726,442.274,16,376,16z M311.559,416.564c-8.514,1.657-11.532-3.585-11.532-8.087c0-5.515,0.208-23.664,0.208-46.176   c0-15.701-5.367-25.965-11.387-31.167c37.374-4.168,76.596-18.4,76.596-83.057c0-18.384-6.482-33.409-17.24-45.19   c1.72-4.251,7.467-21.355-1.679-44.536c0,0-14.072-4.526-46.103,17.25c-13.404-3.754-27.769-5.595-42.01-5.68   c-14.283,0.063-28.63,1.926-42.014,5.657c-32.044-21.773-46.14-17.251-46.14-17.251c-9.124,23.161-3.378,40.285-1.639,44.54   c-10.735,11.78-17.282,26.807-17.282,45.188c0,64.488,39.182,78.93,76.434,83.188c-4.807,4.213-9.147,11.63-10.657,22.506   c-9.563,4.316-33.875,11.738-48.851-13.978c0,0-8.85-16.159-25.691-17.353c0,0-16.382-0.211-1.135,10.227   c0,0,11.014,5.174,18.629,24.626c0,0,9.856,32.738,56.522,22.57c0.088,14.046,0.232,24.63,0.232,28.635   c0,4.466-3.063,9.662-11.452,8.106c-66.697-22.277-114.771-85.363-114.771-159.725c0-92.976,75.128-168.343,167.771-168.343   c92.688,0,167.816,75.367,167.816,168.343C426.186,331.201,378.153,394.262,311.559,416.564z"/></g><g id="Layer_1"/></symbol><symbol viewBox="0 0 512.00134 512.0014" id="src-5"><path d="M449.446,0c34.525,0 62.554,28.03 62.554,62.554l0,386.892c0,34.524 -28.03,62.554 -62.554,62.554l-386.892,0c-34.524,0 -62.554,-28.03 -62.554,-62.554l0,-386.892c0,-34.524 28.029,-62.554 62.554,-62.554l386.892,0Zm-288.985,423.278l0,-225.717l-75.04,0l0,225.717l75.04,0Zm270.539,0l0,-129.439c0,-69.333 -37.018,-101.586 -86.381,-101.586c-39.804,0 -57.634,21.891 -67.617,37.266l0,-31.958l-75.021,0c0.995,21.181 0,225.717 0,225.717l75.02,0l0,-126.056c0,-6.748 0.486,-13.492 2.474,-18.315c5.414,-13.475 17.767,-27.434 38.494,-27.434c27.135,0 38.007,20.707 38.007,51.037l0,120.768l75.024,0Zm-307.552,-334.556c-25.674,0 -42.448,16.879 -42.448,39.002c0,21.658 16.264,39.002 41.455,39.002l0.484,0c26.165,0 42.452,-17.344 42.452,-39.002c-0.485,-22.092 -16.241,-38.954 -41.943,-39.002Z"/></symbol></svg>