<svg xmlns="http://www.w3.org/2000/svg"><symbol viewBox="0 0 29.132385 28.60736" id="src-1"><title/><g data-name="github coding dev developer" id="github_coding_dev_developer"><path d="M16,3a13,13,0,0,0-3.46,25.53,1,1,0,1,0,.53-1.92,11,11,0,1,1,7-.4,15.85,15.85,0,0,0-.3-3.92A6.27,6.27,0,0,0,24.68,16a6.42,6.42,0,0,0-1.05-3.87,7.09,7.09,0,0,0-.4-3.36,1,1,0,0,0-1.1-.67,8,8,0,0,0-3.37,1.28A11.35,11.35,0,0,0,16,9a13.09,13.09,0,0,0-3,.43A5.74,5.74,0,0,0,9.62,8.25a1,1,0,0,0-1,.66,7.06,7.06,0,0,0-.37,3.19A7.15,7.15,0,0,0,7.2,16a6.66,6.66,0,0,0,5,6.28,7.43,7.43,0,0,0-.15.79c-1,.06-1.58-.55-2.32-1.48a3.45,3.45,0,0,0-1.94-1.53,1,1,0,0,0-1.15.76A1,1,0,0,0,7.35,22c.16,0,.55.52.77.81a4.74,4.74,0,0,0,3.75,2.25,4.83,4.83,0,0,0,1.3-.18h0a1,1,0,0,0,.29-.14l0,0a.72.72,0,0,0,.18-.21.34.34,0,0,0,.08-.09.85.85,0,0,0,.06-.17,1.52,1.52,0,0,0,.06-.2v0a4.11,4.11,0,0,1,.46-1.91,1,1,0,0,0-.76-1.65A4.6,4.6,0,0,1,9.2,16a4.84,4.84,0,0,1,.87-3,1,1,0,0,0,.24-.83,5,5,0,0,1,0-1.85,3.59,3.59,0,0,1,1.74.92,1,1,0,0,0,1,.23A12.49,12.49,0,0,1,16,11a9.91,9.91,0,0,1,2.65.43,1,1,0,0,0,1-.18,5,5,0,0,1,2-1,4.11,4.11,0,0,1,0,1.91,1.05,1.05,0,0,0,.32,1A4,4,0,0,1,22.68,16a4.29,4.29,0,0,1-4.41,4.46,1,1,0,0,0-.94.65,1,1,0,0,0,.28,1.11c.59.51.5,4,.47,5.36a1,1,0,0,0,.38.81,1,1,0,0,0,.62.21,1.07,1.07,0,0,0,.25,0A13,13,0,0,0,16,3Z"/></g></symbol><symbol viewBox="0 0 447.90002 447.9" id="src-2"><style type="text/css" xml:space="preserve">.st0 { fill-rule: evenodd; clip-rule: evenodd; }</style><g><g><path class="st0" d="M182.8,384V212.9h-54.9V384H182.8L182.8,384z M157.4,187c18.3,0,29.7-13.1,29.7-29.5    c-0.3-16.7-11.4-29.5-29.4-29.5c-18,0-29.7,12.8-29.7,29.5c0,16.4,11.4,29.5,29,29.5H157.4L157.4,187z"/><path class="st0" d="M320.6,209c-29.1,0-41.6,16.4-49.6,27.8V213h-55v171h55v-97.4c0-5,0.4-10,1.9-13.5c4-10,13-20.3,28.2-20.3    c19.9,0,27.9,15.3,27.9,37.7V384h55v-99.9C384,232.8,356.8,209,320.6,209z"/></g><path d="M417.2,64H96.8C79.3,64,64,76.6,64,93.9v321.1c0,17.4,15.3,32.9,32.8,32.9h320.3c17.6,0,30.8-15.6,30.8-32.9V93.9   C448,76.6,434.7,64,417.2,64z M414,416c-1.1,0-313.1,0-314.9,0s-3.1-1.4-3.1-3.1S96,99.1,96,98s1-2,2-2s315,0,316,0s2,1,2,2   c0,23.3,0,314.9,0,316C416,414.9,415.1,416,414,416z"/></g></symbol><symbol viewBox="0 0 111.73751 127" id="src-3"><g><path d="M97.8,15C79.1-3.6,48.9-3.6,30.2,15c-18.6,18.6-18.6,48.9,0,67.6L64,115.6l33.7-33.1l0,0C116.4,63.9,116.4,33.6,97.8,15z    M92.1,76.8L64,104.4L35.9,76.9c-7.5-7.5-11.6-17.5-11.6-28.1s4.1-20.6,11.6-28.1S53.4,9,64,9s20.6,4.1,28.1,11.6   s11.6,17.5,11.6,28.1C103.8,59.4,99.6,69.3,92.1,76.8z"/><path d="M64,28.3c-11.3,0-20.4,9.2-20.4,20.4S52.7,69.2,64,69.2S84.4,60,84.4,48.8S75.3,28.3,64,28.3z M64,61.2   c-6.8,0-12.4-5.6-12.4-12.4S57.2,36.3,64,36.3s12.4,5.6,12.4,12.4S70.8,61.2,64,61.2z"/><rect height="8" width="74" x="27" y="119"/></g></symbol><symbol viewBox="0 0 29 25" id="src-4"><title/><g data-name="mail email e-mail letter" id="mail_email_e-mail_letter"><path d="M28,13a1,1,0,0,0-1,1v8a1,1,0,0,1-1,1H6a1,1,0,0,1-1-1V14a1,1,0,0,0-2,0v8a3,3,0,0,0,.88,2.12A3,3,0,0,0,6,25H26a3,3,0,0,0,2.12-.88A3,3,0,0,0,29,22V14A1,1,0,0,0,28,13Z"/><path d="M15.4,18.8a1,1,0,0,0,1.2,0L28.41,9.94a1,1,0,0,0,.3-1.23,3.06,3.06,0,0,0-.59-.83A3,3,0,0,0,26,7H6a3,3,0,0,0-2.12.88,3.06,3.06,0,0,0-.59.83,1,1,0,0,0,.3,1.23ZM6,9H26a.9.9,0,0,1,.28,0L16,16.75,5.72,9A.9.9,0,0,1,6,9Z"/></g></symbol><symbol viewBox="0 0 102 128" id="src-5"><title/><path d="M91,0H37A11,11,0,0,0,26,11V117a11,11,0,0,0,11,11H91a11,11,0,0,0,11-11V11A11,11,0,0,0,91,0ZM32,22.69H96V99.58H32ZM37,6H91a5,5,0,0,1,5,5v5.69H32V11A5,5,0,0,1,37,6ZM91,122H37a5,5,0,0,1-5-5V105.58H96V117A5,5,0,0,1,91,122Z"/><circle cx="64" cy="113.91" r="6"/><path d="M56.13,14.22H71.88a3,3,0,1,0,0-6H56.13a3,3,0,1,0,0,6Z"/></symbol></svg>